PathFileType	4	(X/Y/Z)	C:/Users/beibeiliu/ov580/test_trc/User3\out8_training_dense_left.trc
DataRate	CameraRate	NumFrames	NumMarkers	Units	OrigDataRate	OrigDataStartFrame	OrigNumFrames
120	120	13	19	mm	120	251	500
Frame#	Time	ThumbCMC			ThumbMCP			ThumbIP			ThumbTip			IndexMCP			IndexPIP			IndexTip			MiddleMCP			MiddlePIP			MiddleTip			RingMCP			RingPIP			RingTip			PinkyMCP			PinkyPIP			PinkyTip			BackHand1			BackHand2			BackHand3	
		X0	Y0	Z0	X1	Y1	Z1	X2	Y2	Z2	X3	Y3	Z3	X4	Y4	Z4	X5	Y5	Z5	X6	Y6	Z6	X7	Y7	Z7	X8	Y8	Z8	X9	Y9	Z9	X10	Y10	Z10	X11	Y11	Z11	X12	Y12	Z12	X13	Y13	Z13	X14	Y14	Z14	X15	Y15	Z15	X16	Y16	Z16	X17	Y17	Z17	X18	Y18	Z18	
250	2.08333	-175.888	-4.39825	32.9191	-183.346	10.1956	4.25449	-176.278	18.2709	-24.3506	-167.642	26.224	-40.607	-152.186	1.02424	-35.0283	-141.085	31.0214	-28.2998	-150.32	20.1029	7.01114	-126.964	2.08764	-31.323	-127.992	29.9604	-17.3793	-136.324	11.7645	14.6671	-113.894	-3.92886	-19.9073	-107.728	24.7355	-8.26988	-123.966	17.777	19.04	-99.4822	-18.5173	-9.84215	-90.1016	-3.45256	-27.9756	-83.8878	13.4048	-42.2902	-129.706	-42.8771	21.379	-135.256	-41.7509	52.1236	-161.177	-34.3862	31.3671	
251	2.09167	-179.432	-2.79212	33.4975	-181.398	10.885	5.44764	-173.211	18.6714	-24.3043	-160.672	23.6762	-44.0978	-147.756	-0.0608108	-35.988	-141.729	29.838	-28.7619	-149.648	23.3278	1.61768	-128.419	-0.0286719	-30.9593	-124.509	28.0292	-19.1229	-137.093	11.0046	13.7784	-110.522	-2.74553	-21.5415	-110.016	25.3931	-10.051	-123.679	15.3185	20.1046	-99.3328	-18.7409	-8.19736	-90.6914	-5.66807	-28.1433	-85.3425	14.858	-45.3662	-129.026	-43.3218	19.618	-134.984	-43.4409	52.951	-158.775	-37.5146	29.8828	
252	2.1	-176.114	-2.63739	33.5825	-180.73	9.77251	-0.265936	-173.962	18.6269	-25.0618	-161.874	26.0028	-45.4812	-149.138	-1.85111	-35.1948	-138.93	30.3356	-27.5519	-147.707	22.2504	3.50766	-125.06	0.952009	-31.7254	-125.041	29.3254	-19.852	-138.527	8.75737	15.1389	-110.421	-3.15722	-20.3992	-108.304	24.4829	-11.3691	-120.358	17.0202	20.0707	-94.6999	-18.5696	-11.3801	-92.6468	-1.67161	-30.353	-87.3481	16.7338	-43.901	-128.571	-41.0785	22.0547	-135.367	-42.9112	52.1811	-161.079	-36.1487	29.0258	
253	2.10833	-180.001	0.116964	33.3091	-178.082	10.6032	2.59975	-173.46	19.176	-27.1454	-162.504	26.7446	-47.4901	-142.977	0.360402	-36.1338	-140.336	31.0028	-31.3464	-149.918	25.7169	1.37492	-125.17	2.24849	-31.8712	-123.783	30.5111	-21.47	-135.408	12.0319	13.2469	-107.315	-0.407647	-20.7316	-105.07	25.0037	-8.08161	-122.242	14.3478	21.2056	-95.5119	-18.3881	-10.9428	-90.5266	-1.35602	-29.8447	-82.6984	14.7289	-42.6675	-126.276	-42.1694	19.2111	-133.065	-43.0248	49.7067	-162.508	-32.4192	26.5265	
254	2.11667	-175.498	-1.86961	29.1082	-179.815	12.0153	0.0669945	-172.46	19.8869	-25.5923	-159.341	25.9141	-48.3578	-146.833	1.01844	-35.6665	-140.677	32.5611	-30.2158	-149.182	22.6797	2.66957	-123.751	-1.92333	-30.2635	-121.611	30.7474	-20.4942	-135.971	9.16815	15.0296	-107.83	-3.24829	-20.1467	-107.606	26.9432	-7.45947	-121.116	14.4934	20.7508	-94.0603	-18.5292	-10.033	-91.6073	-3.11694	-28.4362	-85.0802	18.4616	-42.4366	-128.019	-41.2735	18.8298	-134.499	-40.2888	49.7109	-162.362	-32.3504	28.655	
255	2.125	-173.297	-1.20654	30.3496	-177.762	11.7243	3.40577	-172.131	20.7705	-25.1675	-158.188	26.0724	-46.7209	-145.69	0.081661	-35.2672	-137.052	32.8154	-27.9175	-144.579	25.3228	2.37257	-127.038	2.26693	-31.5492	-119.398	29.3085	-20.0906	-132.117	10.4571	13.8561	-110.139	-2.99608	-20.5064	-104.601	26.0877	-6.54622	-123.034	15.5722	20.6263	-96.2364	-17.8718	-12.6768	-87.2167	-3.7059	-27.2665	-82.2512	20.3248	-41.4609	-127.207	-40.0043	19.7869	-134.152	-40.7682	50.5976	-159.003	-33.6991	30.7946	
256	2.13333	-176.174	-0.710085	33.1901	-178.233	12.2992	2.69177	-168.338	17.9129	-24.3056	-159.242	26.2019	-48.537	-147.485	-0.873223	-34.1878	-140.72	33.1909	-28.1302	-145.833	23.0613	2.93789	-121.773	-1.9295	-29.6619	-118.782	29.3104	-20.0899	-132.535	11.8657	13.2759	-108.929	-0.891359	-21.3665	-104.312	25.1283	-8.84614	-120.522	15.488	18.8697	-95.3009	-19.4728	-10.4198	-92.3897	-4.45153	-29.0305	-84.8893	16.4338	-40.7854	-125.184	-40.3931	20.2121	-133.485	-42.7761	51.2722	-157.53	-35.0597	31.1298	
257	2.14167	-177.345	-0.417735	32.945	-178.475	11.6562	1.17834	-168.768	18.9942	-22.3322	-156.703	26.5966	-44.5723	-145.502	1.67856	-37.8443	-136.021	30.6558	-27.9197	-143.525	23.9668	0.751581	-125.839	0.145183	-32.537	-119.158	29.1283	-15.6542	-135.248	9.88126	13.1277	-108.311	-6.0555	-19.571	-103.489	24.3102	-10.1963	-122.01	17.511	16.9319	-94.9773	-18.6739	-9.81269	-89.8066	-2.50915	-29.199	-81.3827	16.5078	-42.4729	-125.051	-40.2896	19.0873	-132.378	-43.7359	52.1807	-156.043	-34.1557	25.8042	
258	2.15	-174.737	-1.61255	31.7916	-176.049	13.2649	6.65861	-171.088	24.0021	-26.2604	-157.762	29.8191	-43.5686	-143.44	1.25859	-35.5821	-136.076	31.3703	-29.4481	-144.833	24.9454	1.29092	-120.88	0.297284	-30.106	-122.36	31.078	-14.6831	-131.966	6.31083	14.5298	-107.582	-1.15598	-20.4459	-107.265	27.4012	-8.34029	-122.202	13.8642	21.4356	-96.3733	-16.866	-12.3469	-86.9269	-0.6702	-30.4321	-82.9213	16.8482	-39.4245	-123.2	-41.7465	22.0313	-133.918	-42.9319	49.6358	-156.617	-34.0253	27.7969	
259	2.15833	-175.53	-1.24286	29.3306	-176.961	14.3657	3.20512	-167.644	23.2806	-26.2659	-157.091	34.1784	-44.1527	-142.062	0.514966	-34.853	-140.614	33.1483	-30.4557	-148.158	25.0646	2.00425	-122.202	1.5966	-29.6948	-119.998	31.0033	-16.6665	-135.553	6.29001	15.6035	-105.068	-0.452757	-19.1518	-104.411	25.7592	-8.50762	-123.94	14.8829	20.347	-96.7832	-17.6096	-7.24897	-85.9364	-1.2377	-26.7807	-84.9889	20.1796	-40.7763	-121.942	-43.4469	23.8867	-132.822	-42.494	51.3131	-160.762	-35.5016	26.0604	
260	2.16667	-173.04	-1.56014	30.2476	-176.723	14.3046	2.8407	-168.068	24.469	-24.095	-155.362	33.7784	-40.5131	-140.249	2.74264	-35.3849	-134.817	31.1637	-28.8284	-147.71	24.0283	3.29323	-122.918	1.3966	-29.1197	-120.074	31.4848	-16.592	-134.755	8.11232	16.3338	-108.951	-2.82774	-18.545	-105.591	26.894	-9.72285	-120.012	16.555	19.947	-93.6891	-15.4157	-12.7908	-87.9648	-3.02739	-26.5191	-83.8379	20.9646	-42.6146	-120.72	-41.5326	23.5745	-130.3	-42.7077	51.8114	-154.909	-34.7036	28.7415	
261	2.175	-173.162	-1.86523	33.828	-175.731	14.8324	3.42067	-164.836	23.9679	-25.8004	-152.842	32.826	-42.9384	-144.152	3.65026	-36.023	-139.131	34.1961	-26.1579	-144.152	21.7301	4.42466	-121.648	2.59621	-29.8135	-117.354	30.8029	-13.4001	-130.147	10.9498	15.4815	-105.317	-3.40497	-17.6275	-101.368	26.7064	-5.52776	-120.125	17.1102	20.7824	-94.4222	-17.101	-8.70917	-86.3594	-1.6162	-25.6745	-83.0392	21.4403	-39.5403	-121.211	-40.3035	19.2894	-127.745	-43.8748	49.6907	-160.147	-34.8438	27.3983	
262	2.18333	-172.987	-1.59508	33.4142	-171.702	12.7133	3.63437	-166.879	24.8686	-20.5711	-149.605	33.1926	-45.12	-139.322	2.63216	-34.5993	-138.823	33.9285	-24.8076	-143.937	19.9817	6.30531	-121.784	0.607361	-27.0343	-119.374	31.3772	-13.954	-130.217	8.082	17.2266	-104.454	-1.68014	-17.6809	-102.726	26.2865	-3.88723	-120.321	17.246	20.9616	-91.4091	-17.7334	-10.5466	-83.8538	0.721346	-27.6846	-80.7058	17.4078	-38.6678	-125.784	-41.4272	22.9369	-129.743	-43.8384	55.0267	-155.768	-34.2435	30.0069	
